# File created by Blade
# Date/Time:  Wed Sep 24 20:26:02 2014
# Frame Rate: 120.000 fps
#------------------------------------------------------
:FULLY-SPECIFIED
:DEGREES
575
root -6.978167 33.340067 1.364310 171.978336 -69.182401 -92.582823
Spine -31.155976 10.854501 -7.271450
Head -57.879277 8.210627 12.846648
LeftShoulder -9.646008 23.109378 15.516406
LeftArm 17.643732 35.999006 -66.425064
LeftForeArm 16.162287 -0.000000 16.953340
LeftHand -30.973569 0.000000 0.428330
LeftHandThumb1 -26.253704 0.000000 33.147579
RightShoulder -16.336083 7.457835 -20.492701
RightArm -28.314162 -32.793917 100.974123
RightForeArm -27.884738 -0.000000 14.179823
RightHand -3.604362 -0.000000 19.389591
RightHandThumb1 -24.326973 -0.000000 -32.862282
LeftUpLeg -75.504466 13.578919 -3.715903
LeftLeg -6.705094 -0.000000 0.000000
LeftFoot -9.786713 12.607075 -14.034761
LeftToeBase 6.674405 -0.000000 -0.000000
RightUpLeg 12.067580 -9.580242 -13.641259
RightLeg 18.869878 -0.000000 -0.000000
RightFoot 40.469500 3.071985 2.689308
RightToeBase 17.169528 -0.000000 -0.000000
576
root -6.970089 33.342220 1.353607 171.988681 -69.077094 -92.404531
Spine -31.160661 10.861349 -7.276630
Head -58.081027 8.277069 12.862092
LeftShoulder -9.640892 23.134389 15.507433
LeftArm 17.731805 35.862379 -66.287003
LeftForeArm 16.221485 -0.000000 16.890765
LeftHand -30.942609 0.000000 0.041251
LeftHandThumb1 -26.253704 0.000000 33.147579
RightShoulder -16.315815 7.465240 -20.456540
RightArm -28.350842 -32.754514 100.930692
RightForeArm -27.980668 -0.000000 14.110353
RightHand -3.636744 0.000000 19.507067
RightHandThumb1 -24.326973 -0.000000 -32.862282
LeftUpLeg -75.683844 13.679154 -3.696550
LeftLeg -6.772649 -0.000000 0.000000
LeftFoot -9.790815 12.643151 -14.034242
LeftToeBase 6.678982 -0.000000 -0.000000
RightUpLeg 12.064844 -9.535139 -13.680645
RightLeg 18.911613 -0.000000 -0.000000
RightFoot 40.423692 2.961128 2.859908
RightToeBase 17.186407 -0.000000 -0.000000
577
root -6.961355 33.346492 1.344133 172.061910 -68.989501 -92.283357
Spine -31.149028 10.851844 -7.315813
Head -58.342473 8.364598 12.864309
LeftShoulder -9.636928 23.079114 15.527849
LeftArm 17.720170 35.766161 -66.219057
LeftForeArm 16.169934 -0.000000 16.863567
LeftHand -30.966681 -0.000000 0.258374
LeftHandThumb1 -26.253704 0.000000 33.147579
RightShoulder -16.319737 7.573667 -20.436081
RightArm -28.494555 -32.754282 100.974073
RightForeArm -28.015425 -0.000000 14.033363
RightHand -3.604355 -0.000000 19.737217
RightHandThumb1 -24.326973 -0.000000 -32.862282
LeftUpLeg -75.856727 13.766347 -3.692409
LeftLeg -6.865770 -0.000000 0.000000
LeftFoot -9.753542 12.644200 -14.106678
LeftToeBase 6.759309 -0.000000 -0.000000
RightUpLeg 12.049267 -9.570455 -13.748201
RightLeg 18.933282 -0.000000 -0.000000
RightFoot 40.501953 3.170002 2.573154
RightToeBase 16.749998 -0.000000 -0.000000
578
root -6.953909 33.353245 1.332676 172.074991 -68.904731 -92.057484
Spine -31.209241 10.842187 -7.313999
Head -58.538094 8.437400 12.836685
LeftShoulder -9.632794 23.075491 15.534263
LeftArm 17.751766 35.656168 -66.127215
LeftForeArm 16.035499 -0.000000 16.816610
LeftHand -30.965917 -0.000000 0.219675
LeftHandThumb1 -26.253704 0.000000 33.147579
RightShoulder -16.301560 7.534885 -20.406107
RightArm -28.521207 -32.786865 100.980676
RightForeArm -28.063466 -0.000000 14.015842
RightHand -3.760647 -0.000000 19.908559
RightHandThumb1 -24.326973 -0.000000 -32.862282
LeftUpLeg -76.107107 13.872844 -3.768291
LeftLeg -6.935452 -0.000000 0.000000
LeftFoot -9.684446 12.529831 -14.144507
LeftToeBase 6.756158 -0.000000 -0.000000
RightUpLeg 11.989779 -9.585641 -13.759685
RightLeg 18.943073 -0.000000 -0.000000
RightFoot 40.443002 3.020334 2.667304
RightToeBase 17.240641 -0.000000 -0.000000
579
root -6.946308 33.361198 1.322738 172.125784 -68.842249 -91.886210
Spine -31.226506 10.811195 -7.335263
Head -58.783032 8.555394 12.798694
LeftShoulder -9.634724 23.032141 15.536143
LeftArm 17.747146 35.531059 -66.049288
LeftForeArm 15.979410 0.000000 16.786695
LeftHand -31.026901 -0.000000 0.270367
LeftHandThumb1 -26.253704 0.000000 33.147579
RightShoulder -16.271016 7.566887 -20.372099
RightArm -28.601740 -32.777386 100.999142
RightForeArm -28.123171 -0.000000 13.996498
RightHand -3.690932 0.000000 20.098859
RightHandThumb1 -24.326973 -0.000000 -32.862282
LeftUpLeg -76.368607 13.970217 -3.916144
LeftLeg -6.970678 -0.000000 0.000000
LeftFoot -9.605880 12.345308 -14.214437
LeftToeBase 6.791626 -0.000000 -0.000000
RightUpLeg 11.943123 -9.609658 -13.791038
RightLeg 18.940303 -0.000000 -0.000000
RightFoot 40.471891 3.050795 2.608446
RightToeBase 17.034496 -0.000000 -0.000000
580
root -6.936851 33.370322 1.312180 172.112035 -68.783156 -91.634683
Spine -31.257041 10.806149 -7.320650
Head -59.001778 8.612324 12.731832
LeftShoulder -9.622638 23.052109 15.549697
LeftArm 17.824029 35.430542 -65.949968
LeftForeArm 15.990742 0.000000 16.757370
LeftHand -31.034443 -0.000000 0.230894
LeftHandThumb1 -26.253704 0.000000 33.147579
RightShoulder -16.277494 7.552134 -20.379506
RightArm -28.623190 -32.799521 101.031627
RightForeArm -27.984465 -0.000000 13.980923
RightHand -3.744791 -0.000000 20.246246
RightHandThumb1 -24.326973 -0.000000 -32.862282
LeftUpLeg -76.651073 14.056411 -3.999888
LeftLeg -6.980023 -0.000000 0.000000
LeftFoot -9.536645 12.159070 -14.313949
LeftToeBase 6.823352 -0.000000 -0.000000
RightUpLeg 11.876986 -9.635196 -13.792460
RightLeg 18.955528 -0.000000 -0.000000
RightFoot 40.447274 2.981429 2.689156
RightToeBase 17.095402 -0.000000 -0.000000
581
root -6.927501 33.380225 1.294493 171.929643 -68.732557 -91.219985
Spine -31.271184 10.786737 -7.233228
Head -59.214785 8.666729 12.657252
LeftShoulder -9.586218 23.013350 15.584943
LeftArm 17.789441 35.349487 -65.922589
LeftForeArm 15.990368 -0.000000 16.756149
LeftHand -31.012223 0.000000 0.102214
LeftHandThumb1 -26.253704 0.000000 33.147579
RightShoulder -16.247878 7.593908 -20.404747
RightArm -28.725129 -32.720511 101.078454
RightForeArm -28.046351 0.000000 13.961066
RightHand -3.761977 0.000000 20.084959
RightHandThumb1 -24.326973 -0.000000 -32.862282
LeftUpLeg -76.966871 14.151958 -4.066852
LeftLeg -6.916853 -0.000000 0.000000
LeftFoot -9.459369 11.906805 -14.435155
LeftToeBase 6.745829 -0.000000 -0.000000
RightUpLeg 11.860089 -9.696676 -13.724853
RightLeg 18.898201 -0.000000 -0.000000
RightFoot 40.513614 3.012934 2.593754
RightToeBase 16.869926 -0.000000 -0.000000
582
root -6.917939 33.386549 1.294458 172.094934 -68.726597 -91.175628
Spine -31.277437 10.755625 -7.295317
Head -59.436676 8.734422 12.595024
LeftShoulder -9.524673 23.044043 15.620285
LeftArm 17.805276 35.222128 -65.874637
LeftForeArm 16.018168 -0.000000 16.802884
LeftHand -31.080909 -0.000000 0.105357
LeftHandThumb1 -26.253704 0.000000 33.147579
RightShoulder -16.243053 7.587425 -20.377652
RightArm -28.759061 -32.718631 101.097280
RightForeArm -28.094298 -0.000000 13.974425
RightHand -3.780409 -0.000000 20.206854
RightHandThumb1 -24.326973 -0.000000 -32.862282
LeftUpLeg -77.238258 14.162349 -4.204342
LeftLeg -6.889189 -0.000000 0.000000
LeftFoot -9.327371 11.813498 -14.341518
LeftToeBase 6.553738 -0.000000 -0.000000
RightUpLeg 11.798521 -9.771046 -13.841698
RightLeg 18.945589 -0.000000 -0.000000
RightFoot 40.468109 2.987948 2.671144
RightToeBase 17.209641 -0.000000 -0.000000
583
root -6.910045 33.394996 1.280261 171.945023 -68.679544 -90.829466
Spine -31.228033 10.735127 -7.196791
Head -59.699930 8.811953 12.469092
LeftShoulder -9.538573 22.977609 15.579842
LeftArm 17.767005 35.213250 -65.782899
LeftForeArm 16.043607 -0.000000 16.824141
LeftHand -30.976889 -0.000000 -0.281905
LeftHandThumb1 -26.253704 0.000000 33.147579
RightShoulder -16.255746 7.647612 -20.409250
RightArm -28.820892 -32.718364 101.162089
RightForeArm -28.170850 -0.000000 13.942337
RightHand -3.667282 -0.000000 20.137199
RightHandThumb1 -24.326973 -0.000000 -32.862282
LeftUpLeg -77.478083 14.218441 -4.150978
LeftLeg -6.843811 -0.000000 0.000000
LeftFoot -9.210241 11.764224 -14.255383
LeftToeBase 6.322582 -0.000000 -0.000000
RightUpLeg 11.789725 -9.726717 -13.788750
RightLeg 18.930771 -0.000000 -0.000000
RightFoot 40.444673 2.846236 2.825920
RightToeBase 17.252777 -0.000000 -0.000000
584
root -6.899113 33.401045 1.273056 171.888782 -68.660717 -90.534868
Spine -31.269508 10.694414 -7.134518
Head -59.823495 8.902340 12.394121
LeftShoulder -9.501144 23.029970 15.621254
LeftArm 17.788058 35.219624 -65.740595
LeftForeArm 16.033932 -0.000000 16.852417
LeftHand -30.998109 -0.000000 0.145559
LeftHandThumb1 -26.253704 0.000000 33.147579
RightShoulder -16.190735 7.688717 -20.473107
RightArm -28.924214 -32.611672 101.231560
RightForeArm -28.223519 -0.000000 13.959309
RightHand -3.726783 -0.000000 19.904597
RightHandThumb1 -24.326973 -0.000000 -32.862282
LeftUpLeg -77.774801 14.218266 -4.100896
LeftLeg -6.769825 -0.000000 0.000000
LeftFoot -9.115630 11.789639 -14.118127
LeftToeBase 6.129120 -0.000000 -0.000000
RightUpLeg 11.720722 -9.740772 -13.773701
RightLeg 18.961457 -0.000000 -0.000000
RightFoot 40.424674 2.809038 2.842190
RightToeBase 17.249805 -0.000000 -0.000000
585
root -6.890267 33.402881 1.267359 171.897837 -68.654435 -90.384314
Spine -31.205542 10.661696 -7.115537
Head -60.016919 8.977621 12.329792
LeftShoulder -9.479327 23.026919 15.615889
LeftArm 17.816828 35.306127 -65.617202
LeftForeArm 16.031585 -0.000000 16.870546
LeftHand -31.067744 -0.000000 0.341884
LeftHandThumb1 -26.253704 0.000000 33.147579
RightShoulder -16.207861 7.738310 -20.489505
RightArm -28.968179 -32.585827 101.262362
RightForeArm -28.129540 0.000000 13.990160
RightHand -3.808705 -0.000000 19.929245
RightHandThumb1 -24.326973 -0.000000 -32.862282
LeftUpLeg -77.982986 14.200968 -4.053408
LeftLeg -6.703463 -0.000000 0.000000
LeftFoot -9.063763 11.890742 -13.952028
LeftToeBase 5.891743 -0.000000 -0.000000
RightUpLeg 11.739764 -9.730437 -13.824482
RightLeg 18.976194 -0.000000 -0.000000
RightFoot 40.445794 2.647894 2.962703
RightToeBase 17.348965 -0.000000 -0.000000
586
root -6.881368 33.406094 1.255903 171.858298 -68.597538 -90.168993
Spine -31.181286 10.666930 -7.095370
Head -60.170834 9.053836 12.328529
LeftShoulder -9.458012 22.997332 15.661904
LeftArm 17.814078 35.397052 -65.544608
LeftForeArm 16.138302 -0.000000 16.849389
LeftHand -31.103091 0.000000 0.452919
LeftHandThumb1 -26.253704 0.000000 33.147579
RightShoulder -16.216422 7.761717 -20.454628
RightArm -28.985418 -32.562128 101.260040
RightForeArm -28.193803 -0.000000 14.012604
RightHand -3.852437 -0.000000 19.902987
RightHandThumb1 -24.326973 -0.000000 -32.862282
LeftUpLeg -78.220105 14.234384 -3.966306
LeftLeg -6.603637 -0.000000 0.000000
LeftFoot -9.062763 12.000973 -13.821059
LeftToeBase 5.735673 -0.000000 -0.000000
RightUpLeg 11.729018 -9.681884 -13.822917
RightLeg 18.997785 -0.000000 -0.000000
RightFoot 40.491395 2.631101 2.868716
RightToeBase 17.264670 -0.000000 -0.000000
587
root -6.873725 33.406568 1.247050 171.856085 -68.547468 -90.005206
Spine -31.159768 10.655416 -7.079834
Head -60.275060 9.154860 12.350575
LeftShoulder -9.454073 23.090697 15.680945
LeftArm 17.935452 35.478769 -65.392559
LeftForeArm 16.196729 -0.000000 16.808771
LeftHand -31.189880 0.000000 0.471901
LeftHandThumb1 -26.253704 0.000000 33.147579
RightShoulder -16.202028 7.803816 -20.429274
RightArm -29.041833 -32.620899 101.328451
RightForeArm -28.208164 -0.000000 14.035563
RightHand -3.899432 -0.000000 20.051187
RightHandThumb1 -24.326973 -0.000000 -32.862282
LeftUpLeg -78.419102 14.255221 -3.867340
LeftLeg -6.536025 -0.000000 0.000000
LeftFoot -9.101170 12.146670 -13.730519
LeftToeBase 5.630162 -0.000000 -0.000000
RightUpLeg 11.726746 -9.692005 -13.883844
RightLeg 19.054544 -0.000000 -0.000000
RightFoot 40.439326 2.533839 2.973944
RightToeBase 17.438670 -0.000000 -0.000000
